<?xml version="1.0" encoding="UTF-8"?> <svg xmlns="http://www.w3.org/2000/svg" width="60" height="39" viewBox="0 0 60 39" fill="none"><g clip-path="url(#clip0_4_496)"><path d="M58.8281 1.15384H1.17188V37.8461H58.8281V1.15384Z" stroke="#5857FF" stroke-width="2.66272" stroke-linecap="round"></path><path d="M16.7343 20.9076C16.2656 20.123 16.0312 19.2461 16.0312 18.2769C16.0312 15.3692 18.4218 13.0153 21.3749 13.0153C22.1718 13.0153 22.9218 13.1999 23.5781 13.4769C23.7187 10.1538 26.5312 7.47687 29.9531 7.47687C33.3749 7.47687 36.1406 10.1076 36.3281 13.3846C37.1249 12.6923 38.1562 12.2307 39.2812 12.2307C41.6718 12.2307 43.6406 14.1692 43.6406 16.523C43.6406 17.8153 43.0312 18.9692 42.1406 19.7999" stroke="#5857FF" stroke-width="2.66272" stroke-linecap="square"></path><path d="M29.8124 18.8307V31.523" stroke="#5857FF" stroke-width="2.66272" stroke-linecap="square"></path><path d="M25.8281 23.4462L29.8124 19.5231L33.7968 23.4462V20.1231L29.8124 16.2L25.8281 20.1231V23.4462Z" fill="#5857FF"></path></g><defs><clipPath id="clip0_4_496"><rect width="60" height="39" fill="white"></rect></clipPath></defs></svg> 