<?xml version="1.0" encoding="UTF-8"?> <svg xmlns="http://www.w3.org/2000/svg" width="60" height="39" viewBox="0 0 60 39" fill="none"><path d="M0 0V39H60V0H0ZM58.8281 22.6154H57.6562V36.6923H24.75V38.5385H22.4062V36.6923H2.34375V18H1.17188V15.6923H2.34375V12.6462H1.17188V10.3385H2.34375V7.56923H1.17188V5.26154H2.34375V2.30769H30.1875V1.15385H32.5312V2.30769H57.6562V20.3077H58.8281V22.6154Z" fill="#5857FF"></path><path d="M27.75 5.26155H2.34375H1.17188V7.56924H2.34375H27.75V5.26155Z" fill="#5857FF"></path><path d="M27.75 10.3385H2.34375H1.17188V12.6461H2.34375H27.75V10.3385Z" fill="#5857FF"></path><path d="M54.5156 26.0308H27.8906V28.3385H54.5156V26.0308Z" fill="#5857FF"></path><path d="M54.5156 31.5692H27.8906V33.8769H54.5156V31.5692Z" fill="#5857FF"></path><path d="M22.4062 20.3077V36.6923V38.5385H24.75V36.6923V22.6154H57.6562H58.8281V20.3077H57.6562H22.4062Z" fill="#5857FF"></path><path d="M32.5312 2.30769V1.15384H30.1875V2.30769V15.6923H2.34375H1.17188V18H2.34375H32.5312V2.30769Z" fill="#5857FF"></path><path d="M0 0V-1.29032H-1.29032V0H0ZM60 0H61.2903V-1.29032H60V0ZM60 39V40.2903H61.2903V39H60ZM0 39H-1.29032V40.2903H0V39ZM0 1.29032H60V-1.29032H0V1.29032ZM58.7097 0V39H61.2903V0H58.7097ZM60 37.7097H0V40.2903H60V37.7097ZM1.29032 39V0H-1.29032V39H1.29032Z" fill="#5857FF"></path></svg> 