<?xml version="1.0" encoding="UTF-8"?> <svg xmlns="http://www.w3.org/2000/svg" width="60" height="39" viewBox="0 0 60 39" fill="none"><path d="M0 0V39H60V0H0ZM2.67187 36.6923C3.23437 31.8923 7.40625 28.1538 12.4219 28.1538C17.4375 28.1538 21.6094 31.8923 22.1719 36.6923H2.67187ZM37.8281 36.6923C38.3906 31.8923 42.5625 28.1538 47.5781 28.1538C52.5937 28.1538 56.7656 31.8923 57.3281 36.6923H37.8281ZM57.6562 31.1077C55.4531 27.9231 51.75 25.8462 47.5781 25.8462C41.25 25.8462 36.0469 30.6 35.4375 36.6923H24.5625C23.9531 30.6 18.75 25.8462 12.4219 25.8462C8.25 25.8462 4.54687 27.9231 2.34375 31.1077V2.30769H57.6562V31.1077Z" fill="#5857FF"></path><path d="M12.4219 24.4615C16.9219 24.4615 20.625 20.8153 20.625 16.3845C20.625 11.9538 16.9219 8.30762 12.4219 8.30762C7.92187 8.30762 4.21875 11.9538 4.21875 16.3845C4.21875 20.8153 7.92187 24.4615 12.4219 24.4615ZM12.4219 10.6153C15.6563 10.6153 18.2812 13.1999 18.2812 16.3845C18.2812 19.5692 15.6563 22.1538 12.4219 22.1538C9.1875 22.1538 6.5625 19.5692 6.5625 16.3845C6.5625 13.1999 9.1875 10.6153 12.4219 10.6153Z" fill="#5857FF"></path><path d="M47.5781 24.4615C52.0781 24.4615 55.7812 20.8153 55.7812 16.3845C55.7812 11.9538 52.0781 8.30762 47.5781 8.30762C43.0781 8.30762 39.375 11.9538 39.375 16.3845C39.375 20.8153 43.0781 24.4615 47.5781 24.4615ZM47.5781 10.6153C50.8125 10.6153 53.4375 13.1999 53.4375 16.3845C53.4375 19.5692 50.8125 22.1538 47.5781 22.1538C44.3437 22.1538 41.7188 19.5692 41.7188 16.3845C41.7188 13.1999 44.3437 10.6153 47.5781 10.6153Z" fill="#5857FF"></path><path d="M31.125 6.92329H22.0312V9.23099H31.125V6.92329Z" fill="#5857FF"></path><path d="M35.9531 12H26.8594V14.3077H35.9531V12Z" fill="#5857FF"></path><path d="M32.9531 17.0769H23.8594V19.3846H32.9531V17.0769Z" fill="#5857FF"></path><path d="M36.5625 22.6154H27.4688V24.9231H36.5625V22.6154Z" fill="#5857FF"></path><path d="M0 0V-1.25H-1.25V0H0ZM60 0H61.25V-1.25H60V0ZM60 39V40.25H61.25V39H60ZM0 39H-1.25V40.25H0V39ZM0 1.25H60V-1.25H0V1.25ZM58.75 0V39H61.25V0H58.75ZM60 37.75H0V40.25H60V37.75ZM1.25 39V0H-1.25V39H1.25Z" fill="#5857FF"></path></svg> 